<svg width="1024" height="1024" viewBox="0 0 1024 1024" fill="none" xmlns="http://www.w3.org/2000/svg">
<path fill-rule="evenodd" clip-rule="evenodd" d="M631.559 424.747C626.994 421.132 622.431 417.515 617.837 413.923C613.97 410.895 610.081 407.886 606.133 404.924C597.529 398.47 588.586 392.169 578.814 386.788C568.9 381.329 558.613 377.087 547.092 374.119C535.767 371.201 523.909 369.715 512 369.715C500.092 369.715 488.233 371.201 476.909 374.119C465.387 377.087 455.101 381.329 445.187 386.788C435.414 392.169 426.472 398.47 417.868 404.924C413.92 407.886 410.031 410.895 406.164 413.923C401.57 417.515 397.007 421.132 392.442 424.747L249.637 537.841C245.193 541.36 240.749 544.877 236.333 548.418C232.612 551.399 228.913 554.397 225.273 557.44C217.341 564.072 209.597 570.965 202.983 578.499C196.274 586.141 191.061 594.07 187.413 602.951C183.826 611.68 182 620.821 182 630C182 639.179 183.826 648.321 187.412 657.05C191.061 665.931 196.274 673.86 202.983 681.502C209.597 689.035 217.341 695.928 225.273 702.56C228.913 705.603 232.612 708.601 236.333 711.582C240.749 715.123 245.193 718.64 249.637 722.159L392.441 835.252C397.006 838.868 401.569 842.484 406.163 846.077C410.03 849.105 413.919 852.114 417.867 855.076C426.471 861.53 435.413 867.831 445.186 873.212C455.1 878.671 465.386 882.912 476.908 885.881C488.232 888.799 500.091 890.285 511.999 890.285C523.908 890.285 535.767 888.799 547.091 885.881C558.612 882.912 568.899 878.671 578.813 873.212C588.586 867.831 597.528 861.53 606.132 855.076C610.08 852.114 613.969 849.105 617.836 846.077C622.43 842.484 626.993 838.868 631.558 835.252L774.362 722.159C778.806 718.64 783.25 715.123 787.666 711.582C791.387 708.601 795.086 705.603 798.726 702.56C806.658 695.928 814.402 689.035 821.016 681.502C827.725 673.86 832.938 665.931 836.587 657.05C840.174 648.32 842 639.179 842 630C842 620.821 840.174 611.68 836.588 602.951C832.939 594.07 827.726 586.141 821.017 578.498C814.403 570.965 806.659 564.072 798.727 557.44C795.087 554.397 791.388 551.399 787.667 548.418C783.251 544.877 778.807 541.36 774.363 537.841L631.559 424.747Z" fill="url(#paint0_linear_9_2)" style=""/>
<path fill-rule="evenodd" clip-rule="evenodd" d="M631.559 424.747C626.994 421.132 622.431 417.515 617.837 413.923C613.97 410.895 610.081 407.886 606.133 404.924C597.529 398.47 588.586 392.169 578.814 386.788C568.9 381.329 558.613 377.087 547.092 374.119C535.767 371.201 523.909 369.715 512 369.715C500.092 369.715 488.233 371.201 476.909 374.119C465.387 377.087 455.101 381.329 445.187 386.788C435.414 392.169 426.472 398.47 417.868 404.924C413.92 407.886 410.031 410.895 406.164 413.923C401.57 417.515 397.007 421.132 392.442 424.747L249.637 537.841C245.193 541.36 240.749 544.877 236.333 548.418C232.612 551.399 228.913 554.397 225.273 557.44C217.341 564.072 209.597 570.965 202.983 578.499C196.274 586.141 191.061 594.07 187.413 602.951C183.826 611.68 182 620.821 182 630C182 639.179 183.826 648.321 187.412 657.05C191.061 665.931 196.274 673.86 202.983 681.502C209.597 689.035 217.341 695.928 225.273 702.56C228.913 705.603 232.612 708.601 236.333 711.582C240.749 715.123 245.193 718.64 249.637 722.159L392.441 835.252C397.006 838.868 401.569 842.484 406.163 846.077C410.03 849.105 413.919 852.114 417.867 855.076C426.471 861.53 435.413 867.831 445.186 873.212C455.1 878.671 465.386 882.912 476.908 885.881C488.232 888.799 500.091 890.285 511.999 890.285C523.908 890.285 535.767 888.799 547.091 885.881C558.612 882.912 568.899 878.671 578.813 873.212C588.586 867.831 597.528 861.53 606.132 855.076C610.08 852.114 613.969 849.105 617.836 846.077C622.43 842.484 626.993 838.868 631.558 835.252L774.362 722.159C778.806 718.64 783.25 715.123 787.666 711.582C791.387 708.601 795.086 705.603 798.726 702.56C806.658 695.928 814.402 689.035 821.016 681.502C827.725 673.86 832.938 665.931 836.587 657.05C840.174 648.32 842 639.179 842 630C842 620.821 840.174 611.68 836.588 602.951C832.939 594.07 827.726 586.141 821.017 578.498C814.403 570.965 806.659 564.072 798.727 557.44C795.087 554.397 791.388 551.399 787.667 548.418C783.251 544.877 778.807 541.36 774.363 537.841L631.559 424.747Z" fill="url(#paint1_linear_9_2)" style=""/>
<defs>
<linearGradient id="paint0_linear_9_2" x1="512" y1="369.715" x2="512" y2="890.285" gradientUnits="userSpaceOnUse">
<stop offset="0.25" stop-opacity="0" style="stop-color:none;stop-opacity:0;"/>
<stop offset="1" stop-color="white" style="stop-color:white;stop-opacity:1;"/>
</linearGradient>
<linearGradient id="paint1_linear_9_2" x1="182" y1="630" x2="842" y2="630" gradientUnits="userSpaceOnUse">
<stop stop-color="white" stop-opacity="0" style="stop-color:none;stop-opacity:0;"/>
<stop offset="0.92" stop-color="white" style="stop-color:white;stop-opacity:1;"/>
</linearGradient>
</defs>
</svg>
