<svg width="1024" height="1024" viewBox="0 0 1024 1024" fill="none" xmlns="http://www.w3.org/2000/svg">
<path fill-rule="evenodd" clip-rule="evenodd" d="M631.559 188.747C626.994 185.132 622.431 181.515 617.837 177.923C613.97 174.895 610.081 171.886 606.133 168.924C597.529 162.47 588.586 156.169 578.814 150.788C568.9 145.329 558.613 141.087 547.092 138.119C535.767 135.201 523.909 133.715 512 133.715C500.092 133.715 488.233 135.201 476.909 138.119C465.387 141.087 455.101 145.329 445.187 150.788C435.414 156.169 426.472 162.47 417.868 168.924C413.92 171.886 410.031 174.895 406.164 177.923C401.57 181.515 397.007 185.132 392.442 188.747L249.637 301.841C245.193 305.36 240.749 308.877 236.333 312.418C232.612 315.4 228.913 318.397 225.273 321.441C217.341 328.072 209.597 334.966 202.983 342.499C196.274 350.141 191.061 358.07 187.413 366.951C183.826 375.68 182 384.821 182 394C182 403.179 183.826 412.321 187.412 421.05C191.061 429.931 196.274 437.86 202.983 445.502C209.597 453.035 217.341 459.928 225.273 466.56C228.913 469.603 232.612 472.601 236.333 475.582C240.749 479.123 245.193 482.64 249.637 486.159L392.441 599.252C397.006 602.868 401.569 606.484 406.163 610.077C410.03 613.105 413.919 616.114 417.867 619.076C426.471 625.53 435.413 631.831 445.186 637.212C455.1 642.671 465.386 646.912 476.908 649.881C488.232 652.799 500.091 654.285 511.999 654.285C523.908 654.285 535.767 652.799 547.091 649.881C558.612 646.912 568.899 642.671 578.813 637.212C588.586 631.831 597.528 625.53 606.132 619.076C610.08 616.114 613.969 613.105 617.836 610.077C622.43 606.484 626.993 602.868 631.558 599.252L774.362 486.159C778.806 482.64 783.25 479.123 787.666 475.582C791.387 472.601 795.086 469.603 798.726 466.56C806.658 459.928 814.402 453.035 821.016 445.502C827.725 437.86 832.938 429.931 836.587 421.05C840.174 412.32 842 403.179 842 394C842 384.821 840.174 375.68 836.588 366.951C832.939 358.07 827.726 350.141 821.017 342.498C814.403 334.965 806.659 328.072 798.727 321.44C795.087 318.397 791.388 315.399 787.667 312.418C783.251 308.877 778.807 305.36 774.363 301.841L631.559 188.747Z" fill="url(#paint0_linear_9_8)" style=""/>
<path fill-rule="evenodd" clip-rule="evenodd" d="M631.559 188.747C626.994 185.132 622.431 181.515 617.837 177.923C613.97 174.895 610.081 171.886 606.133 168.924C597.529 162.47 588.586 156.169 578.814 150.788C568.9 145.329 558.613 141.087 547.092 138.119C535.767 135.201 523.909 133.715 512 133.715C500.092 133.715 488.233 135.201 476.909 138.119C465.387 141.087 455.101 145.329 445.187 150.788C435.414 156.169 426.472 162.47 417.868 168.924C413.92 171.886 410.031 174.895 406.164 177.923C401.57 181.515 397.007 185.132 392.442 188.747L249.637 301.841C245.193 305.36 240.749 308.877 236.333 312.418C232.612 315.4 228.913 318.397 225.273 321.441C217.341 328.072 209.597 334.966 202.983 342.499C196.274 350.141 191.061 358.07 187.413 366.951C183.826 375.68 182 384.821 182 394C182 403.179 183.826 412.321 187.412 421.05C191.061 429.931 196.274 437.86 202.983 445.502C209.597 453.035 217.341 459.928 225.273 466.56C228.913 469.603 232.612 472.601 236.333 475.582C240.749 479.123 245.193 482.64 249.637 486.159L392.441 599.252C397.006 602.868 401.569 606.484 406.163 610.077C410.03 613.105 413.919 616.114 417.867 619.076C426.471 625.53 435.413 631.831 445.186 637.212C455.1 642.671 465.386 646.912 476.908 649.881C488.232 652.799 500.091 654.285 511.999 654.285C523.908 654.285 535.767 652.799 547.091 649.881C558.612 646.912 568.899 642.671 578.813 637.212C588.586 631.831 597.528 625.53 606.132 619.076C610.08 616.114 613.969 613.105 617.836 610.077C622.43 606.484 626.993 602.868 631.558 599.252L774.362 486.159C778.806 482.64 783.25 479.123 787.666 475.582C791.387 472.601 795.086 469.603 798.726 466.56C806.658 459.928 814.402 453.035 821.016 445.502C827.725 437.86 832.938 429.931 836.587 421.05C840.174 412.32 842 403.179 842 394C842 384.821 840.174 375.68 836.588 366.951C832.939 358.07 827.726 350.141 821.017 342.498C814.403 334.965 806.659 328.072 798.727 321.44C795.087 318.397 791.388 315.399 787.667 312.418C783.251 308.877 778.807 305.36 774.363 301.841L631.559 188.747Z" fill="url(#paint1_linear_9_8)" style=""/>
<defs>
<linearGradient id="paint0_linear_9_8" x1="182" y1="394" x2="842" y2="394" gradientUnits="userSpaceOnUse">
<stop offset="0.12" stop-color="#C8C8C8" style="stop-color:#C8C8C8;stop-color:color(display-p3 0.7843 0.7843 0.7843);stop-opacity:1;"/>
<stop offset="0.220709" stop-color="#C3C3C3" stop-opacity="0.885558" style="stop-color:#C3C3C3;stop-color:color(display-p3 0.7647 0.7647 0.7647);stop-opacity:0.885558;"/>
<stop offset="0.346712" stop-color="#B3B3B3" stop-opacity="0.742372" style="stop-color:#B3B3B3;stop-color:color(display-p3 0.7020 0.7020 0.7020);stop-opacity:0.742372;"/>
<stop offset="0.486271" stop-color="#9A9A9A" stop-opacity="0.583783" style="stop-color:#9A9A9A;stop-color:color(display-p3 0.6039 0.6039 0.6039);stop-opacity:0.583783;"/>
<stop offset="0.635602" stop-color="#767676" stop-opacity="0.414088" style="stop-color:#767676;stop-color:color(display-p3 0.4627 0.4627 0.4627);stop-opacity:0.414088;"/>
<stop offset="0.79268" stop-color="#484848" stop-opacity="0.235591" style="stop-color:#484848;stop-color:color(display-p3 0.2824 0.2824 0.2824);stop-opacity:0.235591;"/>
<stop offset="0.953949" stop-color="#111111" stop-opacity="0.0523303" style="stop-color:#111111;stop-color:color(display-p3 0.0667 0.0667 0.0667);stop-opacity:0.0523303;"/>
<stop offset="1" stop-opacity="0" style="stop-color:none;stop-opacity:0;"/>
</linearGradient>
<linearGradient id="paint1_linear_9_8" x1="512" y1="654.285" x2="512" y2="133.715" gradientUnits="userSpaceOnUse">
<stop stop-color="white" stop-opacity="0" style="stop-color:none;stop-opacity:0;"/>
<stop offset="1" stop-color="white" style="stop-color:white;stop-opacity:1;"/>
</linearGradient>
</defs>
</svg>
